  0
SECTION
  2
HEADER
  9
$ACADVER
  1
AC1014
  9
$ACADMAINTVER
 70
     9
  9
$DWGCODEPAGE
  3
ANSI_1252
  9
$INSBASE
 10
0.0
 20
0.0
 30
0.0
  9
$EXTMIN
 10
1.000000000000000E+20
 20
1.000000000000000E+20
 30
1.000000000000000E+20
  9
$EXTMAX
 10
-1.000000000000000E+20
 20
-1.000000000000000E+20
 30
-1.000000000000000E+20
  9
$LIMMIN
 10
0.0
 20
0.0
  9
$LIMMAX
 10
12.0
 20
9.0
  9
$ORTHOMODE
 70
     0
  9
$REGENMODE
 70
     1
  9
$FILLMODE
 70
     1
  9
$QTEXTMODE
 70
     0
  9
$MIRRTEXT
 70
     1
  9
$DRAGMODE
 70
     2
  9
$LTSCALE
 40
1.0
  9
$OSMODE
 70
    37
  9
$ATTMODE
 70
     1
  9
$TEXTSIZE
 40
0.2
  9
$TRACEWID
 40
0.05
  9
$TEXTSTYLE
  7
STANDARD
  9
$CLAYER
  8
0
  9
$CELTYPE
  6
BYLAYER
  9
$CECOLOR
 62
   256
  9
$CELTSCALE
 40
1.0
  9
$DELOBJ
 70
     1
  9
$DISPSILH
 70
     0
  9
$DIMSCALE
 40
1.0
  9
$DIMASZ
 40
0.18
  9
$DIMEXO
 40
0.0625
  9
$DIMDLI
 40
0.38
  9
$DIMRND
 40
0.0
  9
$DIMDLE
 40
0.0
  9
$DIMEXE
 40
0.18
  9
$DIMTP
 40
0.0
  9
$DIMTM
 40
0.0
  9
$DIMTXT
 40
0.18
  9
$DIMCEN
 40
0.09
  9
$DIMTSZ
 40
0.0
  9
$DIMTOL
 70
     0
  9
$DIMLIM
 70
     0
  9
$DIMTIH
 70
     1
  9
$DIMTOH
 70
     1
  9
$DIMSE1
 70
     0
  9
$DIMSE2
 70
     0
  9
$DIMTAD
 70
     0
  9
$DIMZIN
 70
     0
  9
$DIMBLK
  1

  9
$DIMASO
 70
     1
  9
$DIMSHO
 70
     1
  9
$DIMPOST
  1

  9
$DIMAPOST
  1

  9
$DIMALT
 70
     0
  9
$DIMALTD
 70
     2
  9
$DIMALTF
 40
25.4
  9
$DIMLFAC
 40
1.0
  9
$DIMTOFL
 70
     0
  9
$DIMTVP
 40
0.0
  9
$DIMTIX
 70
     0
  9
$DIMSOXD
 70
     0
  9
$DIMSAH
 70
     0
  9
$DIMBLK1
  1

  9
$DIMBLK2
  1

  9
$DIMSTYLE
  2
STANDARD
  9
$DIMCLRD
 70
     0
  9
$DIMCLRE
 70
     0
  9
$DIMCLRT
 70
     0
  9
$DIMTFAC
 40
1.0
  9
$DIMGAP
 40
0.09
  9
$DIMJUST
 70
     0
  9
$DIMSD1
 70
     0
  9
$DIMSD2
 70
     0
  9
$DIMTOLJ
 70
     1
  9
$DIMTZIN
 70
     0
  9
$DIMALTZ
 70
     0
  9
$DIMALTTZ
 70
     0
  9
$DIMFIT
 70
     3
  9
$DIMUPT
 70
     0
  9
$DIMUNIT
 70
     2
  9
$DIMDEC
 70
     4
  9
$DIMTDEC
 70
     4
  9
$DIMALTU
 70
     2
  9
$DIMALTTD
 70
     2
  9
$DIMTXSTY
  7
STANDARD
  9
$DIMAUNIT
 70
     0
  9
$LUNITS
 70
     2
  9
$LUPREC
 70
     4
  9
$SKETCHINC
 40
0.1
  9
$FILLETRAD
 40
0.5
  9
$AUNITS
 70
     0
  9
$AUPREC
 70
     0
  9
$MENU
  1
.
  9
$ELEVATION
 40
0.0
  9
$PELEVATION
 40
0.0
  9
$THICKNESS
 40
0.0
  9
$LIMCHECK
 70
     0
  9
$CHAMFERA
 40
0.0
  9
$CHAMFERB
 40
0.0
  9
$CHAMFERC
 40
0.0
  9
$CHAMFERD
 40
0.0
  9
$SKPOLY
 70
     0
  9
$TDCREATE
 40
2457570.571760035
  9
$TDUPDATE
 40
2457570.571760104
  9
$TDINDWG
 40
0.0000000116
  9
$TDUSRTIMER
 40
0.0000000116
  9
$USRTIMER
 70
     1
  9
$ANGBASE
 50
0.0
  9
$ANGDIR
 70
     0
  9
$PDMODE
 70
     0
  9
$PDSIZE
 40
0.0
  9
$PLINEWID
 40
0.0
  9
$COORDS
 70
     1
  9
$SPLFRAME
 70
     0
  9
$SPLINETYPE
 70
     6
  9
$SPLINESEGS
 70
     8
  9
$ATTDIA
 70
     0
  9
$ATTREQ
 70
     1
  9
$HANDLING
 70
     1
  9
$HANDSEED
  5
16F
  9
$SURFTAB1
 70
     6
  9
$SURFTAB2
 70
     6
  9
$SURFTYPE
 70
     6
  9
$SURFU
 70
     6
  9
$SURFV
 70
     6
  9
$UCSNAME
  2

  9
$UCSORG
 10
0.0
 20
0.0
 30
0.0
  9
$UCSXDIR
 10
1.0
 20
0.0
 30
0.0
  9
$UCSYDIR
 10
0.0
 20
1.0
 30
0.0
  9
$PUCSNAME
  2

  9
$PUCSORG
 10
0.0
 20
0.0
 30
0.0
  9
$PUCSXDIR
 10
1.0
 20
0.0
 30
0.0
  9
$PUCSYDIR
 10
0.0
 20
1.0
 30
0.0
  9
$USERI1
 70
     0
  9
$USERI2
 70
     0
  9
$USERI3
 70
     0
  9
$USERI4
 70
     0
  9
$USERI5
 70
     0
  9
$USERR1
 40
0.0
  9
$USERR2
 40
0.0
  9
$USERR3
 40
0.0
  9
$USERR4
 40
0.0
  9
$USERR5
 40
0.0
  9
$WORLDVIEW
 70
     1
  9
$SHADEDGE
 70
     3
  9
$SHADEDIF
 70
    70
  9
$TILEMODE
 70
     1
  9
$MAXACTVP
 70
    64
  9
$PINSBASE
 10
0.0
 20
0.0
 30
0.0
  9
$PLIMCHECK
 70
     0
  9
$PEXTMIN
 10
1.000000000000000E+20
 20
1.000000000000000E+20
 30
1.000000000000000E+20
  9
$PEXTMAX
 10
-1.000000000000000E+20
 20
-1.000000000000000E+20
 30
-1.000000000000000E+20
  9
$PLIMMIN
 10
0.0
 20
0.0
  9
$PLIMMAX
 10
12.0
 20
9.0
  9
$UNITMODE
 70
     0
  9
$VISRETAIN
 70
     1
  9
$PLINEGEN
 70
     0
  9
$PSLTSCALE
 70
     1
  9
$TREEDEPTH
 70
  3020
  9
$PICKSTYLE
 70
     1
  9
$CMLSTYLE
  2
STANDARD
  9
$CMLJUST
 70
     0
  9
$CMLSCALE
 40
1.0
  9
$PROXYGRAPHICS
 70
     1
  9
$MEASUREMENT
 70
     1
  0
ENDSEC
  0
SECTION
  2
CLASSES
  0
CLASS
  1
ACDBDICTIONARYWDFLT
  2
AcDbDictionaryWithDefault
  3
ObjectDBX Classes
 90
        0
280
     0
281
     0
  0
CLASS
  1
VISUALSTYLE
  2
AcDbVisualStyle
  3
ObjectDBX Classes
 90
     4095
280
     0
281
     0
  0
CLASS
  1
MATERIAL
  2
AcDbMaterial
  3
ObjectDBX Classes
 90
     1153
280
     0
281
     0
  0
CLASS
  1
SCALE
  2
AcDbScale
  3
ObjectDBX Classes
 90
     1153
280
     0
281
     0
  0
CLASS
  1
SUN
  2
AcDbSun
  3
SCENEOE
 90
     1153
280
     0
281
     0
  0
CLASS
  1
DICTIONARYVAR
  2
AcDbDictionaryVar
  3
ObjectDBX Classes
 90
        0
280
     0
281
     0
  0
CLASS
  1
XRECORD
  2
AcDbXrecord
  3
ObjectDBX Classes
 90
        0
280
     0
281
     0
  0
CLASS
  1
LWPOLYLINE
  2
AcDbPolyline
  3
ObjectDBX Classes
 90
        0
280
     0
281
     1
  0
CLASS
  1
HATCH
  2
AcDbHatch
  3
ObjectDBX Classes
 90
        0
280
     0
281
     1
  0
CLASS
  1
ACDBPLACEHOLDER
  2
AcDbPlaceHolder
  3
ObjectDBX Classes
 90
        0
280
     0
281
     0
  0
CLASS
  1
LAYOUT
  2
AcDbLayout
  3
ObjectDBX Classes
 90
        0
280
     0
281
     0
  0
ENDSEC
  0
SECTION
  2
TABLES
  0
TABLE
  2
VPORT
  5
8
102
{ACAD_XDICTIONARY
360
165
102
}
330
0
100
AcDbSymbolTable
 70
     1
  0
VPORT
  5
29
330
8
100
AcDbSymbolTableRecord
100
AcDbViewportTableRecord
  2
*ACTIVE
 70
     0
 10
0.0
 20
0.0
 11
1.0
 21
1.0
 12
0.0
 22
0.0
 13
0.0
 23
0.0
 14
0.5
 24
0.5
 15
0.5
 25
0.5
 16
0.0
 26
0.0
 36
1.0
 17
0.0
 27
0.0
 37
-1000.0
 40
656.7285860309539
 41
1.993704092339979
 42
50.0
 43
1457.538492163699
 44
8914.310680699036
 50
0.0
 51
0.0
 71
     0
 72
   100
 73
     1
 74
     3
 75
     0
 76
     0
 77
     0
 78
     0
  0
ENDTAB
  0
TABLE
  2
LTYPE
  5
5
330
0
100
AcDbSymbolTable
 70
     1
  0
LTYPE
  5
14
330
5
100
AcDbSymbolTableRecord
100
AcDbLinetypeTableRecord
  2
BYBLOCK
 70
     0
  3

 72
    65
 73
     0
 40
0.0
  0
LTYPE
  5
15
330
5
100
AcDbSymbolTableRecord
100
AcDbLinetypeTableRecord
  2
BYLAYER
 70
     0
  3

 72
    65
 73
     0
 40
0.0
  0
LTYPE
  5
16
330
5
100
AcDbSymbolTableRecord
100
AcDbLinetypeTableRecord
  2
CONTINUOUS
 70
     0
  3
Solid line
 72
    65
 73
     0
 40
0.0
  0
ENDTAB
  0
TABLE
  2
LAYER
  5
2
330
0
100
AcDbSymbolTable
 70
     3
  0
LAYER
  5
10
330
2
100
AcDbSymbolTableRecord
100
AcDbLayerTableRecord
  2
0
 70
     0
 62
     7
  6
CONTINUOUS
  0
LAYER
  5
6A
330
2
100
AcDbSymbolTableRecord
100
AcDbLayerTableRecord
  2
PROFILEEDGES
 70
     0
 62
     7
  6
CONTINUOUS
  0
LAYER
  5
6B
330
2
100
AcDbSymbolTableRecord
100
AcDbLayerTableRecord
  2
SECTIONCUTEDGES
 70
     0
 62
     7
  6
CONTINUOUS
  0
ENDTAB
  0
TABLE
  2
STYLE
  5
3
330
0
100
AcDbSymbolTable
 70
     1
  0
STYLE
  5
11
330
3
100
AcDbSymbolTableRecord
100
AcDbTextStyleTableRecord
  2
STANDARD
 70
     0
 40
0.0
 41
1.0
 50
0.0
 71
     0
 42
0.2
  3
txt
  4

  0
ENDTAB
  0
TABLE
  2
VIEW
  5
6
330
0
100
AcDbSymbolTable
 70
     0
  0
ENDTAB
  0
TABLE
  2
UCS
  5
7
330
0
100
AcDbSymbolTable
 70
     0
  0
ENDTAB
  0
TABLE
  2
APPID
  5
9
330
0
100
AcDbSymbolTable
 70
     1
  0
APPID
  5
12
330
9
100
AcDbSymbolTableRecord
100
AcDbRegAppTableRecord
  2
ACAD
 70
     0
  0
ENDTAB
  0
TABLE
  2
DIMSTYLE
  5
A
330
0
100
AcDbSymbolTable
 70
     1
  0
DIMSTYLE
105
27
330
A
100
AcDbSymbolTableRecord
100
AcDbDimStyleTableRecord
  2
STANDARD
 70
     0
  3

  4

  5

  6

  7

 40
1.0
 41
0.18
 42
0.0625
 43
0.38
 44
0.18
 45
0.0
 46
0.0
 47
0.0
 48
0.0
140
0.18
141
0.09
142
0.0
143
25.4
144
1.0
145
0.0
146
1.0
147
0.09
 71
     0
 72
     0
 73
     1
 74
     1
 75
     0
 76
     0
 77
     0
 78
     0
170
     0
171
     2
172
     0
173
     0
174
     0
175
     0
176
     0
177
     0
178
     0
270
     2
271
     4
272
     4
273
     2
274
     2
340
11
275
     0
280
     0
281
     0
282
     0
283
     1
284
     0
285
     0
286
     0
287
     3
288
     0
  0
ENDTAB
  0
TABLE
  2
BLOCK_RECORD
  5
1
330
0
100
AcDbSymbolTable
 70
     1
  0
BLOCK_RECORD
  5
1F
330
1
100
AcDbSymbolTableRecord
100
AcDbBlockTableRecord
  2
*MODEL_SPACE
  0
BLOCK_RECORD
  5
1B
330
1
100
AcDbSymbolTableRecord
100
AcDbBlockTableRecord
  2
*PAPER_SPACE
  0
ENDTAB
  0
ENDSEC
  0
SECTION
  2
BLOCKS
  0
BLOCK
  5
20
330
1F
100
AcDbEntity
  8
0
100
AcDbBlockBegin
  2
*MODEL_SPACE
 70
     0
 10
0.0
 20
0.0
 30
0.0
  3
*MODEL_SPACE
  1

  0
ENDBLK
  5
21
330
1F
100
AcDbEntity
  8
0
100
AcDbBlockEnd
  0
BLOCK
  5
1C
330
1B
100
AcDbEntity
 67
     1
  8
0
100
AcDbBlockBegin
  2
*PAPER_SPACE
 70
     0
 10
0.0
 20
0.0
 30
0.0
  3
*PAPER_SPACE
  1

  0
ENDBLK
  5
1D
330
1B
100
AcDbEntity
 67
     1
  8
0
100
AcDbBlockEnd
  0
ENDSEC
  0
SECTION
  2
ENTITIES
  0
LINE
  5
6C
330
1F
100
AcDbEntity
  8
0
100
AcDbLine
 10
49.87873120645407
 20
-31.15219579583939
 30
0.0
 11
49.87873120645407
 21
6.980881639996456
 31
0.0
  0
LINE
  5
6D
330
1F
100
AcDbEntity
  8
0
100
AcDbLine
 10
-75.3706235263519
 20
-31.85189446294042
 30
0.0
 11
-75.3706235263519
 21
6.281182972895221
 31
0.0
  0
LINE
  5
6E
330
1F
100
AcDbEntity
  8
0
100
AcDbLine
 10
19.09261694594029
 20
-31.15219579583939
 30
0.0
 11
49.87873120645407
 21
-31.15219579583939
 31
0.0
  0
LINE
  5
6F
330
1F
100
AcDbEntity
  8
0
100
AcDbLine
 10
-273.0326277339706
 20
-30.80211749420328
 30
0.0
 11
-273.0326277339706
 21
7.330959941632312
 31
0.0
  0
LINE
  5
70
330
1F
100
AcDbEntity
  8
0
100
AcDbLine
 10
84.51035528236315
 20
-77.68265707923956
 30
0.0
 11
84.51035528236315
 21
-115.8157345150752
 31
0.0
  0
LINE
  5
71
330
1F
100
AcDbEntity
  8
0
100
AcDbLine
 10
84.51035528236315
 20
-115.8157345150752
 30
0.0
 11
115.2964695428769
 21
-115.8157345150752
 31
0.0
  0
LINE
  5
72
330
1F
100
AcDbEntity
  8
0
100
AcDbLine
 10
-106.156737786866
 20
-34.65328957289374
 30
0.0
 11
-106.156737786866
 21
-72.78636700872974
 31
0.0
  0
LINE
  5
73
330
1F
100
AcDbEntity
  8
0
100
AcDbLine
 10
-240.1477564234546
 20
-35.00103838607102
 30
0.0
 11
-240.1477564234546
 21
-73.13411582190676
 31
0.0
  0
LINE
  5
74
330
1F
100
AcDbEntity
  8
0
100
AcDbLine
 10
115.2964695428769
 20
-77.68265707923956
 30
0.0
 11
84.51035528236315
 21
-77.68265707923956
 31
0.0
  0
LINE
  5
75
330
1F
100
AcDbEntity
  8
0
100
AcDbLine
 10
-209.0097668590996
 20
-115.4658851815246
 30
0.0
 11
-209.0097668590996
 21
-77.33280774568895
 31
0.0
  0
LINE
  5
76
330
1F
100
AcDbEntity
  8
0
100
AcDbLine
 10
-304.1704388047268
 20
-35.00103838607085
 30
0.0
 11
-304.1704388047268
 21
-73.13411582190676
 31
0.0
  0
LINE
  5
77
330
1F
100
AcDbEntity
  8
0
100
AcDbLine
 10
-334.6517290613476
 20
-122.9397284155959
 30
0.0
 11
-334.6517290613476
 21
18.10442538119009
 31
0.0
  0
LINE
  5
78
330
1F
100
AcDbEntity
  8
0
100
AcDbLine
 10
-334.6517290613476
 20
18.10442538119009
 30
0.0
 11
138.433261133103
 21
18.10442538119009
 31
0.0
  0
LINE
  5
79
330
1F
100
AcDbEntity
  8
0
100
AcDbLine
 10
138.433261133103
 20
-122.9397284155959
 30
0.0
 11
138.433261133103
 21
18.10442538119009
 31
0.0
  0
LINE
  5
7A
330
1F
100
AcDbEntity
  8
0
100
AcDbLine
 10
-334.6517290613476
 20
-122.9397284155959
 30
0.0
 11
138.433261133103
 21
-122.9397284155959
 31
0.0
  0
LINE
  5
7B
330
1F
100
AcDbEntity
  8
0
100
AcDbLine
 10
-78.44882984112834
 20
-92.33970590319738
 30
0.0
 11
-102.7941713444971
 21
-92.33970590319738
 31
0.0
  0
LINE
  5
7C
330
1F
100
AcDbEntity
  8
0
100
AcDbLine
 10
-78.44882984112834
 20
-84.4519516718675
 30
0.0
 11
-78.44882984112834
 21
-92.33970590319738
 31
0.0
  0
LINE
  5
7D
330
1F
100
AcDbEntity
  8
0
100
AcDbLine
 10
-102.7941713444971
 20
-84.4519516718675
 30
0.0
 11
-78.44882984112834
 21
-84.4519516718675
 31
0.0
  0
LINE
  5
7E
330
1F
100
AcDbEntity
  8
0
100
AcDbLine
 10
-102.7941713444971
 20
-92.33970590319738
 30
0.0
 11
-102.7941713444971
 21
-84.4519516718675
 31
0.0
  0
LINE
  5
7F
330
1F
100
AcDbEntity
  8
0
100
AcDbLine
 10
-273.0326277339706
 20
7.330959941632312
 30
0.0
 11
-303.8187419944849
 21
7.330959941632312
 31
0.0
  0
LINE
  5
80
330
1F
100
AcDbEntity
  8
0
100
AcDbLine
 10
-303.8187419944849
 20
7.330959941632312
 30
0.0
 11
-303.8187419944849
 21
-30.80211749420328
 31
0.0
  0
LINE
  5
81
330
1F
100
AcDbEntity
  8
0
100
AcDbLine
 10
-303.8187419944849
 20
-30.80211749420328
 30
0.0
 11
-273.0326277339706
 21
-30.80211749420328
 31
0.0
  0
LINE
  5
82
330
1F
100
AcDbEntity
  8
0
100
AcDbLine
 10
-273.3843245442123
 20
-73.13411582190676
 30
0.0
 11
-273.3843245442123
 21
-35.00103838607085
 31
0.0
  0
LINE
  5
83
330
1F
100
AcDbEntity
  8
0
100
AcDbLine
 10
-273.3843245442123
 20
-35.00103838607085
 30
0.0
 11
-304.1704388047268
 21
-35.00103838607085
 31
0.0
  0
LINE
  5
84
330
1F
100
AcDbEntity
  8
0
100
AcDbLine
 10
-304.1704388047268
 20
-73.13411582190676
 30
0.0
 11
-273.3843245442123
 21
-73.13411582190676
 31
0.0
  0
LINE
  5
85
330
1F
100
AcDbEntity
  8
0
100
AcDbLine
 10
-273.0326071024006
 20
-115.4658851815246
 30
0.0
 11
-273.0326071024006
 21
-77.33280774568895
 31
0.0
  0
LINE
  5
86
330
1F
100
AcDbEntity
  8
0
100
AcDbLine
 10
-273.0326071024006
 20
-77.33280774568895
 30
0.0
 11
-303.8187213629151
 21
-77.33280774568895
 31
0.0
  0
LINE
  5
87
330
1F
100
AcDbEntity
  8
0
100
AcDbLine
 10
-303.8187213629151
 20
-77.33280774568895
 30
0.0
 11
-303.8187213629151
 21
-115.4658851815246
 31
0.0
  0
LINE
  5
88
330
1F
100
AcDbEntity
  8
0
100
AcDbLine
 10
-303.8187213629151
 20
-115.4658851815246
 30
0.0
 11
-273.0326071024006
 21
-115.4658851815246
 31
0.0
  0
LINE
  5
89
330
1F
100
AcDbEntity
  8
0
100
AcDbLine
 10
-209.0097668590996
 20
-77.33280774568895
 30
0.0
 11
-239.7958811196136
 21
-77.33280774568895
 31
0.0
  0
LINE
  5
8A
330
1F
100
AcDbEntity
  8
0
100
AcDbLine
 10
-239.7958811196136
 20
-77.33280774568895
 30
0.0
 11
-239.7958811196136
 21
-115.4658851815246
 31
0.0
  0
LINE
  5
8B
330
1F
100
AcDbEntity
  8
0
100
AcDbLine
 10
-239.7958811196136
 20
-115.4658851815246
 30
0.0
 11
-209.0097668590996
 21
-115.4658851815246
 31
0.0
  0
LINE
  5
8C
330
1F
100
AcDbEntity
  8
0
100
AcDbLine
 10
-209.3616421629405
 20
-73.13411582190676
 30
0.0
 11
-209.3616421629405
 21
-35.00103838607102
 31
0.0
  0
LINE
  5
8D
330
1F
100
AcDbEntity
  8
0
100
AcDbLine
 10
-209.3616421629405
 20
-35.00103838607102
 30
0.0
 11
-240.1477564234546
 21
-35.00103838607102
 31
0.0
  0
LINE
  5
8E
330
1F
100
AcDbEntity
  8
0
100
AcDbLine
 10
-240.1477564234546
 20
-73.13411582190676
 30
0.0
 11
-209.3616421629405
 21
-73.13411582190676
 31
0.0
  0
LINE
  5
8F
330
1F
100
AcDbEntity
  8
0
100
AcDbLine
 10
-209.3616421629405
 20
-31.50204512938995
 30
0.0
 11
-209.3616421629405
 21
6.631032306445872
 31
0.0
  0
LINE
  5
90
330
1F
100
AcDbEntity
  8
0
100
AcDbLine
 10
-209.3616421629405
 20
6.631032306445872
 30
0.0
 11
-240.1477564234546
 21
6.631032306445872
 31
0.0
  0
LINE
  5
91
330
1F
100
AcDbEntity
  8
0
100
AcDbLine
 10
-240.1477564234546
 20
6.631032306445872
 30
0.0
 11
-240.1477564234546
 21
-31.50204512938995
 31
0.0
  0
LINE
  5
92
330
1F
100
AcDbEntity
  8
0
100
AcDbLine
 10
-240.1477564234546
 20
-31.50204512938995
 30
0.0
 11
-209.3616421629405
 21
-31.50204512938995
 31
0.0
  0
LINE
  5
93
330
1F
100
AcDbEntity
  8
0
100
AcDbLine
 10
-143.9390318350208
 20
-31.85189446294042
 30
0.0
 11
-143.9390318350208
 21
6.281182972895221
 31
0.0
  0
LINE
  5
94
330
1F
100
AcDbEntity
  8
0
100
AcDbLine
 10
-143.9390318350208
 20
6.281182972895221
 30
0.0
 11
-174.7251460955353
 21
6.281182972895221
 31
0.0
  0
LINE
  5
95
330
1F
100
AcDbEntity
  8
0
100
AcDbLine
 10
-174.7251460955353
 20
6.281182972895221
 30
0.0
 11
-174.7251460955353
 21
-31.85189446294042
 31
0.0
  0
LINE
  5
96
330
1F
100
AcDbEntity
  8
0
100
AcDbLine
 10
-174.7251460955353
 20
-31.85189446294042
 30
0.0
 11
-143.9390318350208
 21
-31.85189446294042
 31
0.0
  0
LINE
  5
97
330
1F
100
AcDbEntity
  8
0
100
AcDbLine
 10
-143.2383991137887
 20
-74.1836638225584
 30
0.0
 11
-143.2383991137887
 21
-36.05058638672249
 31
0.0
  0
LINE
  5
98
330
1F
100
AcDbEntity
  8
0
100
AcDbLine
 10
-143.2383991137887
 20
-36.05058638672249
 30
0.0
 11
-174.0245133743035
 21
-36.05058638672249
 31
0.0
  0
LINE
  5
99
330
1F
100
AcDbEntity
  8
0
100
AcDbLine
 10
-174.0245133743035
 20
-36.05058638672249
 30
0.0
 11
-174.0245133743035
 21
-74.1836638225584
 31
0.0
  0
LINE
  5
9A
330
1F
100
AcDbEntity
  8
0
100
AcDbLine
 10
-174.0245133743035
 20
-74.1836638225584
 30
0.0
 11
-143.2383991137887
 21
-74.1836638225584
 31
0.0
  0
LINE
  5
9B
330
1F
100
AcDbEntity
  8
0
100
AcDbLine
 10
-143.9439038265161
 20
-116.1655838486257
 30
0.0
 11
-143.9439038265161
 21
-78.03250641279008
 31
0.0
  0
LINE
  5
9C
330
1F
100
AcDbEntity
  8
0
100
AcDbLine
 10
-143.9439038265161
 20
-78.03250641279008
 30
0.0
 11
-174.7300180870305
 21
-78.03250641279008
 31
0.0
  0
LINE
  5
9D
330
1F
100
AcDbEntity
  8
0
100
AcDbLine
 10
-174.7300180870305
 20
-78.03250641279008
 30
0.0
 11
-174.7300180870305
 21
-116.1655838486257
 31
0.0
  0
LINE
  5
9E
330
1F
100
AcDbEntity
  8
0
100
AcDbLine
 10
-174.7300180870305
 20
-116.1655838486257
 30
0.0
 11
-143.9439038265161
 21
-116.1655838486257
 31
0.0
  0
LINE
  5
9F
330
1F
100
AcDbEntity
  8
0
100
AcDbLine
 10
-106.5075211745473
 20
6.281182972895221
 30
0.0
 11
-106.5075211745473
 21
-31.85189446294042
 31
0.0
  0
LINE
  5
A0
330
1F
100
AcDbEntity
  8
0
100
AcDbLine
 10
-75.3706235263519
 20
-72.78636700872974
 30
0.0
 11
-75.3706235263519
 21
-34.65328957289374
 31
0.0
  0
LINE
  5
A1
330
1F
100
AcDbEntity
  8
0
100
AcDbLine
 10
-75.3706235263519
 20
-34.65328957289374
 30
0.0
 11
-106.156737786866
 21
-34.65328957289374
 31
0.0
  0
LINE
  5
A2
330
1F
100
AcDbEntity
  8
0
100
AcDbLine
 10
-106.156737786866
 20
-72.78636700872974
 30
0.0
 11
-75.3706235263519
 21
-72.78636700872974
 31
0.0
  0
LINE
  5
A3
330
1F
100
AcDbEntity
  8
0
100
AcDbLine
 10
116.001974255604
 20
-73.83381448900792
 30
0.0
 11
116.001974255604
 21
-35.70073705317215
 31
0.0
  0
LINE
  5
A4
330
1F
100
AcDbEntity
  8
0
100
AcDbLine
 10
116.001974255604
 20
-35.70073705317215
 30
0.0
 11
85.21585999508983
 21
-35.70073705317215
 31
0.0
  0
LINE
  5
A5
330
1F
100
AcDbEntity
  8
0
100
AcDbLine
 10
85.21585999508983
 20
-35.70073705317215
 30
0.0
 11
85.21585999508983
 21
-73.83381448900792
 31
0.0
  0
LINE
  5
A6
330
1F
100
AcDbEntity
  8
0
100
AcDbLine
 10
85.21585999508983
 20
-73.83381448900792
 30
0.0
 11
116.001974255604
 21
-73.83381448900792
 31
0.0
  0
LINE
  5
A7
330
1F
100
AcDbEntity
  8
0
100
AcDbLine
 10
115.3013415343722
 20
-31.50204512938995
 30
0.0
 11
115.3013415343722
 21
6.631032306445872
 31
0.0
  0
LINE
  5
A8
330
1F
100
AcDbEntity
  8
0
100
AcDbLine
 10
115.3013415343722
 20
6.631032306445872
 30
0.0
 11
84.51522727385806
 21
6.631032306445872
 31
0.0
  0
LINE
  5
A9
330
1F
100
AcDbEntity
  8
0
100
AcDbLine
 10
84.51522727385806
 20
6.631032306445872
 30
0.0
 11
84.51522727385806
 21
-31.50204512938995
 31
0.0
  0
LINE
  5
AA
330
1F
100
AcDbEntity
  8
0
100
AcDbLine
 10
84.51522727385806
 20
-31.50204512938995
 30
0.0
 11
115.3013415343722
 21
-31.50204512938995
 31
0.0
  0
LINE
  5
AB
330
1F
100
AcDbEntity
  8
0
100
AcDbLine
 10
115.2964695428769
 20
-115.8157345150752
 30
0.0
 11
115.2964695428769
 21
-77.68265707923956
 31
0.0
  0
LINE
  5
AC
330
1F
100
AcDbEntity
  8
0
100
AcDbLine
 10
50.23060651029519
 20
-115.116035847974
 30
0.0
 11
50.23060651029519
 21
-76.98295841213834
 31
0.0
  0
LINE
  5
AD
330
1F
100
AcDbEntity
  8
0
100
AcDbLine
 10
50.23060651029519
 20
-76.98295841213834
 30
0.0
 11
19.44449224978068
 21
-76.98295841213834
 31
0.0
  0
LINE
  5
AE
330
1F
100
AcDbEntity
  8
0
100
AcDbLine
 10
19.44449224978068
 20
-76.98295841213834
 30
0.0
 11
19.44449224978068
 21
-115.116035847974
 31
0.0
  0
LINE
  5
AF
330
1F
100
AcDbEntity
  8
0
100
AcDbLine
 10
19.44449224978068
 20
-115.116035847974
 30
0.0
 11
50.23060651029519
 21
-115.116035847974
 31
0.0
  0
LINE
  5
B0
330
1F
100
AcDbEntity
  8
0
100
AcDbLine
 10
49.87873120645407
 20
6.980881639996456
 30
0.0
 11
19.09261694594029
 21
6.980881639996456
 31
0.0
  0
LINE
  5
B1
330
1F
100
AcDbEntity
  8
0
100
AcDbLine
 10
19.09261694594029
 20
6.980881639996456
 30
0.0
 11
19.09261694594029
 21
-31.15219579583939
 31
0.0
  0
LINE
  5
B2
330
1F
100
AcDbEntity
  8
0
100
AcDbLine
 10
49.87873120645407
 20
-72.78426648835624
 30
0.0
 11
49.87873120645407
 21
-34.65118905252019
 31
0.0
  0
LINE
  5
B3
330
1F
100
AcDbEntity
  8
0
100
AcDbLine
 10
49.87873120645407
 20
-34.65118905252019
 30
0.0
 11
19.09261694594029
 21
-34.65118905252019
 31
0.0
  0
LINE
  5
B4
330
1F
100
AcDbEntity
  8
0
100
AcDbLine
 10
19.09261694594029
 20
-34.65118905252019
 30
0.0
 11
19.09261694594029
 21
-72.78426648835624
 31
0.0
  0
LINE
  5
B5
330
1F
100
AcDbEntity
  8
0
100
AcDbLine
 10
19.09261694594029
 20
-72.78426648835624
 30
0.0
 11
49.87873120645407
 21
-72.78426648835624
 31
0.0
  0
LINE
  5
B6
330
1F
100
AcDbEntity
  8
0
100
AcDbLine
 10
-13.79225436457546
 20
-30.45226816065281
 30
0.0
 11
-13.79225436457546
 21
7.680809275182828
 31
0.0
  0
LINE
  5
B7
330
1F
100
AcDbEntity
  8
0
100
AcDbLine
 10
-13.79225436457546
 20
7.680809275182828
 30
0.0
 11
-44.57836862509069
 21
7.680809275182828
 31
0.0
  0
LINE
  5
B8
330
1F
100
AcDbEntity
  8
0
100
AcDbLine
 10
-44.57836862509069
 20
7.680809275182828
 30
0.0
 11
-44.57836862509069
 21
-30.45226816065281
 31
0.0
  0
LINE
  5
B9
330
1F
100
AcDbEntity
  8
0
100
AcDbLine
 10
-44.57836862509069
 20
-30.45226816065281
 30
0.0
 11
-13.79225436457546
 21
-30.45226816065281
 31
0.0
  0
LINE
  5
BA
330
1F
100
AcDbEntity
  8
0
100
AcDbLine
 10
-13.79223373300547
 20
-115.116035847974
 30
0.0
 11
-13.79223373300547
 21
-76.98295841213834
 31
0.0
  0
LINE
  5
BB
330
1F
100
AcDbEntity
  8
0
100
AcDbLine
 10
-13.79223373300547
 20
-76.98295841213834
 30
0.0
 11
-44.57834799352035
 21
-76.98295841213834
 31
0.0
  0
LINE
  5
BC
330
1F
100
AcDbEntity
  8
0
100
AcDbLine
 10
-44.57834799352035
 20
-76.98295841213834
 30
0.0
 11
-44.57834799352035
 21
-115.116035847974
 31
0.0
  0
LINE
  5
BD
330
1F
100
AcDbEntity
  8
0
100
AcDbLine
 10
-44.57834799352035
 20
-115.116035847974
 30
0.0
 11
-13.79223373300547
 21
-115.116035847974
 31
0.0
  0
LINE
  5
BE
330
1F
100
AcDbEntity
  8
0
100
AcDbLine
 10
-14.14395117481789
 20
-72.78426648835624
 30
0.0
 11
-14.14395117481789
 21
-34.65118905252019
 31
0.0
  0
LINE
  5
BF
330
1F
100
AcDbEntity
  8
0
100
AcDbLine
 10
-14.14395117481789
 20
-34.65118905252019
 30
0.0
 11
-44.93006543533204
 21
-34.65118905252019
 31
0.0
  0
LINE
  5
C0
330
1F
100
AcDbEntity
  8
0
100
AcDbLine
 10
-44.93006543533204
 20
-34.65118905252019
 30
0.0
 11
-44.93006543533204
 21
-72.78426648835624
 31
0.0
  0
LINE
  5
C1
330
1F
100
AcDbEntity
  8
0
100
AcDbLine
 10
-44.93006543533204
 20
-72.78426648835624
 30
0.0
 11
-14.14395117481789
 21
-72.78426648835624
 31
0.0
  0
LINE
  5
C2
330
1F
100
AcDbEntity
  8
0
100
AcDbLine
 10
-209.8946810448482
 20
118.2410288948979
 30
0.0
 11
-209.8946810448482
 21
156.3741063307336
 31
0.0
  0
LINE
  5
C3
330
1F
100
AcDbEntity
  8
0
100
AcDbLine
 10
-306.4521630506727
 20
115.0918849717673
 30
0.0
 11
-306.4521630506727
 21
76.9588075359316
 31
0.0
  0
LINE
  5
C4
330
1F
100
AcDbEntity
  8
0
100
AcDbLine
 10
138.8959598819876
 20
166.234614632019
 30
0.0
 11
-334.1890303124626
 21
166.234614632019
 31
0.0
  0
LINE
  5
C5
330
1F
100
AcDbEntity
  8
0
100
AcDbLine
 10
-209.8946810448482
 20
156.3741063307336
 30
0.0
 11
-240.6807953053623
 21
156.3741063307336
 31
0.0
  0
LINE
  5
C6
330
1F
100
AcDbEntity
  8
0
100
AcDbLine
 10
-274.9605440774312
 20
157.0738049978348
 30
0.0
 11
-305.7466583379455
 21
157.0738049978348
 31
0.0
  0
LINE
  5
C7
330
1F
100
AcDbEntity
  8
0
100
AcDbLine
 10
113.3685531994162
 20
72.06018797696292
 30
0.0
 11
82.58243893890257
 21
72.06018797696292
 31
0.0
  0
LINE
  5
C8
330
1F
100
AcDbEntity
  8
0
100
AcDbLine
 10
49.69756762838709
 20
76.25910886883057
 30
0.0
 11
49.69756762838709
 21
114.3921863046662
 31
0.0
  0
LINE
  5
C9
330
1F
100
AcDbEntity
  8
0
100
AcDbLine
 10
49.69756762838709
 20
34.62703817631377
 30
0.0
 11
49.69756762838709
 21
72.7601156121494
 31
0.0
  0
LINE
  5
CA
330
1F
100
AcDbEntity
  8
0
100
AcDbLine
 10
-274.9605440774312
 20
118.940727561999
 30
0.0
 11
-274.9605440774312
 21
157.0738049978348
 31
0.0
  0
LINE
  5
CB
330
1F
100
AcDbEntity
  8
0
100
AcDbLine
 10
-275.6660487901584
 20
76.9588075359316
 30
0.0
 11
-275.6660487901584
 21
115.0918849717673
 31
0.0
  0
LINE
  5
CC
330
1F
100
AcDbEntity
  8
0
100
AcDbLine
 10
82.58241830733276
 20
156.7239556642842
 30
0.0
 11
82.58241830733276
 21
118.5908782284484
 31
0.0
  0
LINE
  5
CD
330
1F
100
AcDbEntity
  8
0
100
AcDbLine
 10
-145.871820169977
 20
71.71033864341231
 30
0.0
 11
-176.6579344304914
 21
71.71033864341231
 31
0.0
  0
LINE
  5
CE
330
1F
100
AcDbEntity
  8
0
100
AcDbLine
 10
-209.5428057410071
 20
34.27718884276321
 30
0.0
 11
-209.5428057410071
 21
72.41026627859894
 31
0.0
  0
LINE
  5
CF
330
1F
100
AcDbEntity
  8
0
100
AcDbLine
 10
-112.0013589539397
 20
133.5977763859568
 30
0.0
 11
-87.6560174505702
 21
133.5977763859568
 31
0.0
  0
LINE
  5
D0
330
1F
100
AcDbEntity
  8
0
100
AcDbLine
 10
-145.8718408015469
 20
118.2410288948979
 30
0.0
 11
-145.8718408015469
 21
156.3741063307336
 31
0.0
  0
LINE
  5
D1
330
1F
100
AcDbEntity
  8
0
100
AcDbLine
 10
-275.6660487901584
 20
115.0918849717673
 30
0.0
 11
-306.4521630506727
 21
115.0918849717673
 31
0.0
  0
LINE
  5
D2
330
1F
100
AcDbEntity
  8
0
100
AcDbLine
 10
-240.3289200015213
 20
72.41026627859894
 30
0.0
 11
-240.3289200015213
 21
34.27718884276321
 31
0.0
  0
LINE
  5
D3
330
1F
100
AcDbEntity
  8
0
100
AcDbLine
 10
113.3685325678467
 20
156.7239556642842
 30
0.0
 11
82.58241830733276
 21
156.7239556642842
 31
0.0
  0
LINE
  5
D4
330
1F
100
AcDbEntity
  8
0
100
AcDbLine
 10
18.91145336787348
 20
114.3921863046662
 30
0.0
 11
18.91145336787348
 21
76.25910886883057
 31
0.0
  0
LINE
  5
D5
330
1F
100
AcDbEntity
  8
0
100
AcDbLine
 10
49.34569232454669
 20
156.7239556642842
 30
0.0
 11
18.55957806403255
 21
156.7239556642842
 31
0.0
  0
LINE
  5
D6
330
1F
100
AcDbEntity
  8
0
100
AcDbLine
 10
-15.72017070803614
 20
157.4236543313854
 30
0.0
 11
-46.50628496855136
 21
157.4236543313854
 31
0.0
  0
LINE
  5
D7
330
1F
100
AcDbEntity
  8
0
100
AcDbLine
 10
-176.6579344304914
 20
33.57726120757677
 30
0.0
 11
-145.871820169977
 21
33.57726120757677
 31
0.0
  0
LINE
  5
D8
330
1F
100
AcDbEntity
  8
0
100
AcDbLine
 10
138.8959598819876
 20
25.19046083523278
 30
0.0
 11
-334.1890303124626
 21
25.19046083523278
 31
0.0
  0
LINE
  5
D9
330
1F
100
AcDbEntity
  8
0
100
AcDbLine
 10
-87.6560174505702
 20
133.5977763859568
 30
0.0
 11
-87.6560174505702
 21
125.710022154627
 31
0.0
  0
LINE
  5
DA
330
1F
100
AcDbEntity
  8
0
100
AcDbLine
 10
-240.3289200015213
 20
114.0423369711157
 30
0.0
 11
-240.3289200015213
 21
75.90925953527987
 31
0.0
  0
LINE
  5
DB
330
1F
100
AcDbEntity
  8
0
100
AcDbLine
 10
-209.5428057410071
 20
72.41026627859894
 30
0.0
 11
-240.3289200015213
 21
72.41026627859894
 31
0.0
  0
LINE
  5
DC
330
1F
100
AcDbEntity
  8
0
100
AcDbLine
 10
113.3685531994162
 20
33.92711054112715
 30
0.0
 11
113.3685531994162
 21
72.06018797696292
 31
0.0
  0
LINE
  5
DD
330
1F
100
AcDbEntity
  8
0
100
AcDbLine
 10
82.93413574914446
 20
114.3921863046662
 30
0.0
 11
82.93413574914446
 21
76.25910886883038
 31
0.0
  0
LINE
  5
DE
330
1F
100
AcDbEntity
  8
0
100
AcDbLine
 10
-305.7515303294409
 20
34.62703817631377
 30
0.0
 11
-274.9654160689266
 21
34.62703817631377
 31
0.0
  0
LINE
  5
DF
330
1F
100
AcDbEntity
  8
0
100
AcDbLine
 10
113.3685325678467
 20
118.5908782284484
 30
0.0
 11
113.3685325678467
 21
156.7239556642842
 31
0.0
  0
LINE
  5
E0
330
1F
100
AcDbEntity
  8
0
100
AcDbLine
 10
-46.51115696004681
 20
34.97688750986411
 30
0.0
 11
-15.72504269953194
 21
34.97688750986411
 31
0.0
  0
LINE
  5
E1
330
1F
100
AcDbEntity
  8
0
100
AcDbLine
 10
-115.0795652687165
 20
75.91136005565342
 30
0.0
 11
-84.29345100820159
 21
75.91136005565342
 31
0.0
  0
LINE
  5
E2
330
1F
100
AcDbEntity
  8
0
100
AcDbLine
 10
82.58243893890257
 20
33.92711054112715
 30
0.0
 11
113.3685531994162
 21
33.92711054112715
 31
0.0
  0
LINE
  5
E3
330
1F
100
AcDbEntity
  8
0
100
AcDbLine
 10
49.69756762838709
 20
72.7601156121494
 30
0.0
 11
18.91145336787348
 21
72.7601156121494
 31
0.0
  0
LINE
  5
E4
330
1F
100
AcDbEntity
  8
0
100
AcDbLine
 10
-15.72504269953194
 20
34.97688750986411
 30
0.0
 11
-15.72504269953194
 21
73.10996494569997
 31
0.0
  0
LINE
  5
E5
330
1F
100
AcDbEntity
  8
0
100
AcDbLine
 10
-305.7515303294409
 20
72.76011561214959
 30
0.0
 11
-305.7515303294409
 21
34.62703817631377
 31
0.0
  0
LINE
  5
E6
330
1F
100
AcDbEntity
  8
0
100
AcDbLine
 10
-305.7466583379455
 20
118.940727561999
 30
0.0
 11
-274.9605440774312
 21
118.940727561999
 31
0.0
  0
LINE
  5
E7
330
1F
100
AcDbEntity
  8
0
100
AcDbLine
 10
-112.0013589539397
 20
125.710022154627
 30
0.0
 11
-112.0013589539397
 21
133.5977763859568
 31
0.0
  0
LINE
  5
E8
330
1F
100
AcDbEntity
  8
0
100
AcDbLine
 10
82.58243893890257
 20
72.06018797696292
 30
0.0
 11
82.58243893890257
 21
33.92711054112715
 31
0.0
  0
LINE
  5
E9
330
1F
100
AcDbEntity
  8
0
100
AcDbLine
 10
-46.50628496855136
 20
119.2905768955495
 30
0.0
 11
-15.72017070803614
 21
119.2905768955495
 31
0.0
  0
LINE
  5
EA
330
1F
100
AcDbEntity
  8
0
100
AcDbLine
 10
-176.6579344304914
 20
71.71033864341231
 30
0.0
 11
-176.6579344304914
 21
33.57726120757677
 31
0.0
  0
LINE
  5
EB
330
1F
100
AcDbEntity
  8
0
100
AcDbLine
 10
-209.5428057410071
 20
75.90925953527987
 30
0.0
 11
-209.5428057410071
 21
114.0423369711157
 31
0.0
  0
LINE
  5
EC
330
1F
100
AcDbEntity
  8
0
100
AcDbLine
 10
-115.0795652687165
 20
73.10996494569997
 30
0.0
 11
-115.0795652687165
 21
34.97688750986411
 31
0.0
  0
LINE
  5
ED
330
1F
100
AcDbEntity
  8
0
100
AcDbLine
 10
-83.94266762052028
 20
34.97688750986411
 30
0.0
 11
-83.94266762052028
 21
73.10996494569997
 31
0.0
  0
LINE
  5
EE
330
1F
100
AcDbEntity
  8
0
100
AcDbLine
 10
-84.29345100820159
 20
75.91136005565342
 30
0.0
 11
-84.29345100820159
 21
114.0444374914892
 31
0.0
  0
LINE
  5
EF
330
1F
100
AcDbEntity
  8
0
100
AcDbLine
 10
18.55957806403255
 20
156.7239556642842
 30
0.0
 11
18.55957806403255
 21
118.5908782284484
 31
0.0
  0
LINE
  5
F0
330
1F
100
AcDbEntity
  8
0
100
AcDbLine
 10
-87.6560174505702
 20
125.710022154627
 30
0.0
 11
-112.0013589539397
 21
125.710022154627
 31
0.0
  0
LINE
  5
F1
330
1F
100
AcDbEntity
  8
0
100
AcDbLine
 10
113.720250009659
 20
114.3921863046662
 30
0.0
 11
82.93413574914446
 21
114.3921863046662
 31
0.0
  0
LINE
  5
F2
330
1F
100
AcDbEntity
  8
0
100
AcDbLine
 10
-47.21178968127841
 20
77.30865686948216
 30
0.0
 11
-16.42567542076336
 21
77.30865686948216
 31
0.0
  0
LINE
  5
F3
330
1F
100
AcDbEntity
  8
0
100
AcDbLine
 10
18.91145336787348
 20
76.25910886883057
 30
0.0
 11
49.69756762838709
 21
76.25910886883057
 31
0.0
  0
LINE
  5
F4
330
1F
100
AcDbEntity
  8
0
100
AcDbLine
 10
-47.21178968127841
 20
115.441734305318
 30
0.0
 11
-47.21178968127841
 21
77.30865686948216
 31
0.0
  0
LINE
  5
F5
330
1F
100
AcDbEntity
  8
0
100
AcDbLine
 10
18.91145336787348
 20
72.7601156121494
 30
0.0
 11
18.91145336787348
 21
34.62703817631377
 31
0.0
  0
LINE
  5
F6
330
1F
100
AcDbEntity
  8
0
100
AcDbLine
 10
18.91145336787348
 20
34.62703817631377
 30
0.0
 11
49.69756762838709
 21
34.62703817631377
 31
0.0
  0
LINE
  5
F7
330
1F
100
AcDbEntity
  8
0
100
AcDbLine
 10
-274.9654160689266
 20
34.62703817631377
 30
0.0
 11
-274.9654160689266
 21
72.76011561214959
 31
0.0
  0
LINE
  5
F8
330
1F
100
AcDbEntity
  8
0
100
AcDbLine
 10
113.720250009659
 20
76.25910886883038
 30
0.0
 11
113.720250009659
 21
114.3921863046662
 31
0.0
  0
LINE
  5
F9
330
1F
100
AcDbEntity
  8
0
100
AcDbLine
 10
-115.0795652687165
 20
114.0444374914892
 30
0.0
 11
-115.0795652687165
 21
75.91136005565342
 31
0.0
  0
LINE
  5
FA
330
1F
100
AcDbEntity
  8
0
100
AcDbLine
 10
-306.4521630506727
 20
76.9588075359316
 30
0.0
 11
-275.6660487901584
 21
76.9588075359316
 31
0.0
  0
LINE
  5
FB
330
1F
100
AcDbEntity
  8
0
100
AcDbLine
 10
-240.3289200015213
 20
34.27718884276321
 30
0.0
 11
-209.5428057410071
 21
34.27718884276321
 31
0.0
  0
LINE
  5
FC
330
1F
100
AcDbEntity
  8
0
100
AcDbLine
 10
-84.29345100820159
 20
114.0444374914892
 30
0.0
 11
-115.0795652687165
 21
114.0444374914892
 31
0.0
  0
LINE
  5
FD
330
1F
100
AcDbEntity
  8
0
100
AcDbLine
 10
-176.6579550620613
 20
156.3741063307336
 30
0.0
 11
-176.6579550620613
 21
118.2410288948979
 31
0.0
  0
LINE
  5
FE
330
1F
100
AcDbEntity
  8
0
100
AcDbLine
 10
-176.3062376202495
 20
75.90925953527987
 30
0.0
 11
-145.5201233597353
 21
75.90925953527987
 31
0.0
  0
LINE
  5
FF
330
1F
100
AcDbEntity
  8
0
100
AcDbLine
 10
-46.50628496855136
 20
157.4236543313854
 30
0.0
 11
-46.50628496855136
 21
119.2905768955495
 31
0.0
  0
LINE
  5
100
330
1F
100
AcDbEntity
  8
0
100
AcDbLine
 10
82.93413574914446
 20
76.25910886883038
 30
0.0
 11
113.720250009659
 21
76.25910886883038
 31
0.0
  0
LINE
  5
101
330
1F
100
AcDbEntity
  8
0
100
AcDbLine
 10
49.69756762838709
 20
114.3921863046662
 30
0.0
 11
18.91145336787348
 21
114.3921863046662
 31
0.0
  0
LINE
  5
102
330
1F
100
AcDbEntity
  8
0
100
AcDbLine
 10
82.58241830733276
 20
118.5908782284484
 30
0.0
 11
113.3685325678467
 21
118.5908782284484
 31
0.0
  0
LINE
  5
103
330
1F
100
AcDbEntity
  8
0
100
AcDbLine
 10
-240.6807953053623
 20
118.2410288948979
 30
0.0
 11
-209.8946810448482
 21
118.2410288948979
 31
0.0
  0
LINE
  5
104
330
1F
100
AcDbEntity
  8
0
100
AcDbLine
 10
-305.7466583379455
 20
157.0738049978348
 30
0.0
 11
-305.7466583379455
 21
118.940727561999
 31
0.0
  0
LINE
  5
105
330
1F
100
AcDbEntity
  8
0
100
AcDbLine
 10
-15.72017070803614
 20
119.2905768955495
 30
0.0
 11
-15.72017070803614
 21
157.4236543313854
 31
0.0
  0
LINE
  5
106
330
1F
100
AcDbEntity
  8
0
100
AcDbLine
 10
-274.9654160689266
 20
72.76011561214959
 30
0.0
 11
-305.7515303294409
 21
72.76011561214959
 31
0.0
  0
LINE
  5
107
330
1F
100
AcDbEntity
  8
0
100
AcDbLine
 10
-209.5428057410071
 20
114.0423369711157
 30
0.0
 11
-240.3289200015213
 21
114.0423369711157
 31
0.0
  0
LINE
  5
108
330
1F
100
AcDbEntity
  8
0
100
AcDbLine
 10
-15.72504269953194
 20
73.10996494569997
 30
0.0
 11
-46.51115696004681
 21
73.10996494569997
 31
0.0
  0
LINE
  5
109
330
1F
100
AcDbEntity
  8
0
100
AcDbLine
 10
-145.8718408015469
 20
156.3741063307336
 30
0.0
 11
-176.6579550620613
 21
156.3741063307336
 31
0.0
  0
LINE
  5
10A
330
1F
100
AcDbEntity
  8
0
100
AcDbLine
 10
-145.871820169977
 20
33.57726120757677
 30
0.0
 11
-145.871820169977
 21
71.71033864341231
 31
0.0
  0
LINE
  5
10B
330
1F
100
AcDbEntity
  8
0
100
AcDbLine
 10
-176.6579550620613
 20
118.2410288948979
 30
0.0
 11
-145.8718408015469
 21
118.2410288948979
 31
0.0
  0
LINE
  5
10C
330
1F
100
AcDbEntity
  8
0
100
AcDbLine
 10
-145.5201233597353
 20
114.0423369711157
 30
0.0
 11
-176.3062376202495
 21
114.0423369711157
 31
0.0
  0
LINE
  5
10D
330
1F
100
AcDbEntity
  8
0
100
AcDbLine
 10
-16.42567542076336
 20
115.441734305318
 30
0.0
 11
-47.21178968127841
 21
115.441734305318
 31
0.0
  0
LINE
  5
10E
330
1F
100
AcDbEntity
  8
0
100
AcDbLine
 10
138.8959598819876
 20
166.234614632019
 30
0.0
 11
138.8959598819876
 21
25.19046083523278
 31
0.0
  0
LINE
  5
10F
330
1F
100
AcDbEntity
  8
0
100
AcDbLine
 10
-240.3289200015213
 20
75.90925953527987
 30
0.0
 11
-209.5428057410071
 21
75.90925953527987
 31
0.0
  0
LINE
  5
110
330
1F
100
AcDbEntity
  8
0
100
AcDbLine
 10
-145.5201233597353
 20
75.90925953527987
 30
0.0
 11
-145.5201233597353
 21
114.0423369711157
 31
0.0
  0
LINE
  5
111
330
1F
100
AcDbEntity
  8
0
100
AcDbLine
 10
-334.1890303124626
 20
166.234614632019
 30
0.0
 11
-334.1890303124626
 21
25.19046083523278
 31
0.0
  0
LINE
  5
112
330
1F
100
AcDbEntity
  8
0
100
AcDbLine
 10
-176.3062376202495
 20
114.0423369711157
 30
0.0
 11
-176.3062376202495
 21
75.90925953527987
 31
0.0
  0
LINE
  5
113
330
1F
100
AcDbEntity
  8
0
100
AcDbLine
 10
49.34569232454669
 20
118.5908782284484
 30
0.0
 11
49.34569232454669
 21
156.7239556642842
 31
0.0
  0
LINE
  5
114
330
1F
100
AcDbEntity
  8
0
100
AcDbLine
 10
-240.6807953053623
 20
156.3741063307336
 30
0.0
 11
-240.6807953053623
 21
118.2410288948979
 31
0.0
  0
LINE
  5
115
330
1F
100
AcDbEntity
  8
0
100
AcDbLine
 10
-16.42567542076336
 20
77.30865686948216
 30
0.0
 11
-16.42567542076336
 21
115.441734305318
 31
0.0
  0
LINE
  5
116
330
1F
100
AcDbEntity
  8
0
100
AcDbLine
 10
-46.51115696004681
 20
73.10996494569997
 30
0.0
 11
-46.51115696004681
 21
34.97688750986411
 31
0.0
  0
LINE
  5
117
330
1F
100
AcDbEntity
  8
0
100
AcDbLine
 10
18.55957806403255
 20
118.5908782284484
 30
0.0
 11
49.34569232454669
 21
118.5908782284484
 31
0.0
  0
LINE
  5
118
330
1F
100
AcDbEntity
  8
0
100
AcDbLine
 10
131.4249358405884
 20
-132.6082909631445
 30
0.0
 11
149.9933619660976
 21
-166.7947355784992
 31
0.0
  0
LINE
  5
119
330
1F
100
AcDbEntity
  8
0
100
AcDbLine
 10
130.3708275010471
 20
-203.739366798484
 30
0.0
 11
149.9933619660976
 21
-166.7947355784992
 31
0.0
  0
LINE
  5
11A
330
1F
100
AcDbEntity
  8
0
100
AcDbLine
 10
206.3525595868654
 20
-203.739366798484
 30
0.0
 11
130.3708275010471
 21
-203.739366798484
 31
0.0
  0
LINE
  5
11B
330
1F
100
AcDbEntity
  8
0
100
AcDbLine
 10
131.4249358405884
 20
-132.6082909631445
 30
0.0
 11
206.3476875953698
 21
-132.6082909631445
 31
0.0
  0
LINE
  5
11C
330
1F
100
AcDbEntity
  8
0
100
AcDbLine
 10
-197.1366272086885
 20
-206.6674586064196
 30
0.0
 11
-197.1366272086885
 21
-131.7447068516387
 31
0.0
  0
LINE
  5
11D
330
1F
100
AcDbEntity
  8
0
100
AcDbLine
 10
-260.6966282599104
 20
-206.6674586064196
 30
0.0
 11
-197.1366272086885
 21
-206.6674586064196
 31
0.0
  0
LINE
  5
11E
330
1F
100
AcDbEntity
  8
0
100
AcDbLine
 10
-260.6966282599104
 20
-131.7447068516387
 30
0.0
 11
-197.1366272086885
 21
-131.7447068516387
 31
0.0
  0
LINE
  5
11F
330
1F
100
AcDbEntity
  8
0
100
AcDbLine
 10
-260.6966282599104
 20
-206.6674586064196
 30
0.0
 11
-260.6966282599104
 21
-131.7447068516387
 31
0.0
  0
LINE
  5
120
330
1F
100
AcDbEntity
  8
0
100
AcDbLine
 10
-12.55319621246666
 20
-202.4134804153412
 30
0.0
 11
63.42853587335121
 21
-202.4134804153412
 31
0.0
  0
LINE
  5
121
330
1F
100
AcDbEntity
  8
0
100
AcDbLine
 10
7.069338252583789
 20
-165.4688491953565
 30
0.0
 11
-11.49908787292557
 21
-131.2824045800019
 31
0.0
  0
LINE
  5
122
330
1F
100
AcDbEntity
  8
0
100
AcDbLine
 10
-11.49908787292557
 20
-131.2824045800019
 30
0.0
 11
63.42366388185558
 21
-131.2824045800019
 31
0.0
  0
LINE
  5
123
330
1F
100
AcDbEntity
  8
0
100
AcDbLine
 10
-12.55319621246666
 20
-202.4134804153412
 30
0.0
 11
7.069338252583789
 21
-165.4688491953565
 31
0.0
  0
LINE
  5
124
330
1F
100
AcDbEntity
  8
0
100
AcDbLine
 10
-270.3910744697066
 20
-128.9028505450831
 30
0.0
 11
-270.3910744697066
 21
-204.8845826309011
 31
0.0
  0
LINE
  5
125
330
1F
100
AcDbEntity
  8
0
100
AcDbLine
 10
-333.951075520929
 20
-128.9028505450831
 30
0.0
 11
-270.3910744697066
 21
-128.9028505450831
 31
0.0
  0
LINE
  5
126
330
1F
100
AcDbEntity
  8
0
100
AcDbLine
 10
-270.3910744697066
 20
-204.8845826309011
 30
0.0
 11
-333.951075520929
 21
-204.8845826309011
 31
0.0
  0
LINE
  5
127
330
1F
100
AcDbEntity
  8
0
100
AcDbLine
 10
-333.951075520929
 20
-204.8845826309011
 30
0.0
 11
-333.951075520929
 21
-128.9028505450831
 31
0.0
  0
LINE
  5
128
330
1F
100
AcDbEntity
  8
0
100
AcDbLine
 10
144.6167227177264
 20
-121.5250796738155
 30
0.0
 11
176.3967232433371
 21
-62.81306631543644
 31
0.0
  0
LINE
  5
129
330
1F
100
AcDbEntity
  8
0
100
AcDbLine
 10
176.3967232433371
 20
-62.81306631543644
 30
0.0
 11
208.176723768948
 21
-121.5250796738159
 31
0.0
  0
LINE
  5
12A
330
1F
100
AcDbEntity
  8
0
100
AcDbLine
 10
208.176723768948
 20
-121.5250796738159
 30
0.0
 11
144.6167227177264
 21
-121.5250796738155
 31
0.0
  0
LINE
  5
12B
330
1F
100
AcDbEntity
  8
0
100
AcDbLine
 10
80.40012676085428
 20
-204.8465176549006
 30
0.0
 11
136.0073325036319
 21
-167.9018864349162
 31
0.0
  0
LINE
  5
12C
330
1F
100
AcDbEntity
  8
0
100
AcDbLine
 10
136.0073325036319
 20
-167.9018864349162
 30
0.0
 11
80.396130987892
 21
-133.7154418195626
 31
0.0
  0
LINE
  5
12D
330
1F
100
AcDbEntity
  8
0
100
AcDbLine
 10
80.396130987892
 20
-133.7154418195626
 30
0.0
 11
80.40012676085428
 21
-204.8465176549006
 31
0.0
  0
LINE
  5
12E
330
1F
100
AcDbEntity
  8
0
100
AcDbLine
 10
176.1535866136489
 20
-55.80499790506208
 30
0.0
 11
144.3735860880381
 21
1.188652153599
 31
0.0
  0
LINE
  5
12F
330
1F
100
AcDbEntity
  8
0
100
AcDbLine
 10
176.1535866136489
 20
-55.80499790506208
 30
0.0
 11
207.9335871392598
 21
1.188652153599812
 31
0.0
  0
LINE
  5
130
330
1F
100
AcDbEntity
  8
0
100
AcDbLine
 10
144.3735860880381
 20
1.188652153599
 30
0.0
 11
207.9335871392598
 21
1.188652153599812
 31
0.0
  0
LINE
  5
131
330
1F
100
AcDbEntity
  8
0
100
AcDbLine
 10
-78.56849191020613
 20
-165.9440216870418
 30
0.0
 11
-22.95778973265171
 21
-131.7575770716868
 31
0.0
  0
LINE
  5
132
330
1F
100
AcDbEntity
  8
0
100
AcDbLine
 10
-78.56849191020613
 20
-165.9440216870418
 30
0.0
 11
-22.96177575111694
 21
-202.8886529070267
 31
0.0
  0
LINE
  5
133
330
1F
100
AcDbEntity
  8
0
100
AcDbLine
 10
-186.1833115360634
 20
-134.8813078438931
 30
0.0
 11
-122.6233104848415
 21
-134.8813078438924
 31
0.0
  0
LINE
  5
134
330
1F
100
AcDbEntity
  8
0
100
AcDbLine
 10
-186.1833115360634
 20
-206.0123836792313
 30
0.0
 11
-186.1833115360634
 21
-134.8813078438931
 31
0.0
  0
LINE
  5
135
330
1F
100
AcDbEntity
  8
0
100
AcDbLine
 10
-122.6233104848415
 20
-206.012383679232
 30
0.0
 11
-186.1833115360634
 21
-206.0123836792313
 31
0.0
  0
LINE
  5
136
330
1F
100
AcDbEntity
  8
0
100
AcDbLine
 10
-106.5075211745473
 20
6.281182972895221
 30
0.0
 11
-75.3706235263519
 21
6.281182972895221
 31
0.0
  0
LINE
  5
137
330
1F
100
AcDbEntity
  8
0
100
AcDbLine
 10
-75.3706235263519
 20
-31.85189446294042
 30
0.0
 11
-106.5075211745473
 21
-31.85189446294042
 31
0.0
  0
LINE
  5
138
330
1F
100
AcDbEntity
  8
0
100
AcDbLine
 10
-83.94266762052028
 20
34.97688750986411
 30
0.0
 11
-115.0795652687165
 21
34.97688750986411
 31
0.0
  0
LINE
  5
139
330
1F
100
AcDbEntity
  8
0
100
AcDbLine
 10
-115.0795652687165
 20
73.10996494569997
 30
0.0
 11
-83.94266762052028
 21
73.10996494569997
 31
0.0
  0
LINE
  5
13A
330
1F
100
AcDbEntity
  8
0
100
AcDbLine
 10
206.3525595868654
 20
-203.739366798484
 30
0.0
 11
206.3476875953698
 21
-132.6082909631445
 31
0.0
  0
LINE
  5
13B
330
1F
100
AcDbEntity
  8
0
100
AcDbLine
 10
63.42853587335121
 20
-202.4134804153412
 30
0.0
 11
63.42366388185558
 21
-131.2824045800019
 31
0.0
  0
LINE
  5
13C
330
1F
100
AcDbEntity
  8
0
100
AcDbLine
 10
-22.95778973265171
 20
-131.7575770716868
 30
0.0
 11
-22.96177575111694
 21
-202.8886529070267
 31
0.0
  0
LINE
  5
13D
330
1F
100
AcDbEntity
  8
0
100
AcDbLine
 10
-122.6233104848415
 20
-206.012383679232
 30
0.0
 11
-122.6233104848415
 21
-134.8813078438924
 31
0.0
  0
ENDSEC
  0
SECTION
  2
OBJECTS
  0
DICTIONARY
  5
C
330
0
100
AcDbDictionary
  3
ACAD_GROUP
350
D
  3
ACAD_LAYOUT
350
1A
  3
ACAD_MATERIAL
350
43
  3
ACAD_MLEADERSTYLE
350
160
  3
ACAD_MLINESTYLE
350
17
  3
ACAD_PLOTSETTINGS
350
19
  3
ACAD_SCALELIST
350
47
  3
ACAD_VISUALSTYLE
350
2A
  3
ACDBHEADERROUNDTRIPXREC
350
13E
  3
ACDBVARIABLEDICTIONARY
350
15E
  0
DICTIONARY
  5
165
330
8
100
AcDbDictionary
280
     1
  3
ACAD_XREC_ROUNDTRIP
360
166
  0
DICTIONARY
  5
D
102
{ACAD_REACTORS
330
C
102
}
330
C
100
AcDbDictionary
  0
DICTIONARY
  5
1A
102
{ACAD_REACTORS
330
C
102
}
330
C
100
AcDbDictionary
  0
DICTIONARY
  5
43
102
{ACAD_REACTORS
330
C
102
}
330
C
100
AcDbDictionary
  3
BYBLOCK
350
45
  3
BYLAYER
350
44
  3
GLOBAL
350
46
  0
DICTIONARY
  5
160
102
{ACAD_REACTORS
330
C
102
}
330
C
100
AcDbDictionary
  0
DICTIONARY
  5
17
102
{ACAD_REACTORS
330
C
102
}
330
C
100
AcDbDictionary
  3
STANDARD
350
18
  0
DICTIONARY
  5
19
102
{ACAD_REACTORS
330
C
102
}
330
C
100
AcDbDictionary
  0
DICTIONARY
  5
47
102
{ACAD_REACTORS
330
C
102
}
330
C
100
AcDbDictionary
  3
A0
350
48
  3
A1
350
49
  3
A2
350
4A
  3
A3
350
4B
  3
A4
350
4C
  3
A5
350
4D
  3
A6
350
4E
  3
A7
350
4F
  3
A8
350
50
  3
A9
350
51
  3
B0
350
52
  3
B1
350
53
  3
B2
350
54
  3
B3
350
55
  3
B4
350
56
  3
B5
350
57
  3
B6
350
58
  3
B7
350
59
  3
B8
350
5A
  3
B9
350
5B
  3
C0
350
5C
  3
C1
350
5D
  3
C2
350
5E
  3
C3
350
5F
  3
C4
350
60
  3
C5
350
61
  3
C6
350
62
  3
C7
350
63
  3
C8
350
64
  3
C9
350
65
  3
D0
350
66
  3
D1
350
67
  3
D2
350
68
  0
DICTIONARY
  5
2A
102
{ACAD_REACTORS
330
C
102
}
330
C
100
AcDbDictionary
  3
2DWIREFRAME
350
2F
  3
BASIC
350
32
  3
BRIGHTEN
350
36
  3
COLORCHANGE
350
3A
  3
CONCEPTUAL
350
34
  3
DIM
350
35
  3
EDGECOLOROFF
350
3D
  3
FACEPATTERN
350
39
  3
FLAT
350
2B
  3
FLATWITHEDGES
350
2C
  3
GOURAUD
350
2D
  3
GOURAUDWITHEDGES
350
2E
  3
HIDDEN
350
31
  3
JITTEROFF
350
3B
  3
LINEPATTERN
350
38
  3
OVERHANGOFF
350
3C
  3
REALISTIC
350
33
  3
SHADED
350
42
  3
SHADED_WITH_EDGES
350
41
  3
SHADES_OF_GRAY
350
3E
  3
SKETCHY
350
3F
  3
THICKEN
350
37
  3
WIREFRAME
350
30
  3
X-RAY
350
40
  0
DICTIONARY
  5
13E
102
{ACAD_REACTORS
330
C
102
}
330
C
100
AcDbDictionary
  3
CEPSNTYPE
350
147
  3
DIMSTYLEDATA
350
15D
  3
FINGERPRINTGUID
350
148
  3
HYPERLINKBASE
350
141
  3
INSUNITS
350
146
  3
LAYOUTDICT
350
143
  3
LWETCUNION
350
145
  3
PLOTSETDICT
350
144
  3
PSVPSCALE
350
14A
  3
PUCSBASE
350
14D
  3
PUCSORGBACK
350
153
  3
PUCSORGBOTTOM
350
14F
  3
PUCSORGFRONT
350
152
  3
PUCSORGLEFT
350
150
  3
PUCSORGRIGHT
350
151
  3
PUCSORGTOP
350
14E
  3
PUCSORTHOREF
350
14B
  3
PUCSORTHOVIEW
350
14C
  3
STYLESHEET
350
142
  3
TSTACKALIGN
350
13F
  3
TSTACKSIZE
350
140
  3
UCSBASE
350
156
  3
UCSORGBACK
350
15C
  3
UCSORGBOTTOM
350
158
  3
UCSORGFRONT
350
15B
  3
UCSORGLEFT
350
159
  3
UCSORGRIGHT
350
15A
  3
UCSORGTOP
350
157
  3
UCSORTHOREF
350
154
  3
UCSORTHOVIEW
350
155
  3
VERSIONGUID
350
149
  0
DICTIONARY
  5
15E
102
{ACAD_REACTORS
330
C
102
}
330
C
100
AcDbDictionary
  3
CANNOSCALE
350
167
  3
DIMASSOC
350
163
  3
HIDETEXT
350
164
  3
MSLTSCALE
350
168
  0
XRECORD
  5
166
102
{ACAD_REACTORS
330
165
102
}
330
165
100
AcDbXrecord
102
VTR_0.000_0.000_1.000_1.000_GRIDDISPLAY
 70
     3
102
VTR_0.000_0.000_1.000_1.000_GRIDMAJOR
 70
     5
102
VTR_0.000_0.000_1.000_1.000_DEFAULTLIGHTING
280
     1
102
VTR_0.000_0.000_1.000_1.000_DEFAULTLIGHTINGTYPE
 70
     1
102
VTR_0.000_0.000_1.000_1.000_BRIGHTNESS
141
0.0
102
VTR_0.000_0.000_1.000_1.000_CONTRAST
142
0.0
  0
MATERIAL
  5
45
102
{ACAD_REACTORS
330
43
102
}
102
{ACAD_XDICTIONARY
360
16B
102
}
330
43
100
AcDbMaterial
  1
BYBLOCK
  0
MATERIAL
  5
44
102
{ACAD_REACTORS
330
43
102
}
102
{ACAD_XDICTIONARY
360
169
102
}
330
43
100
AcDbMaterial
  1
BYLAYER
  0
MATERIAL
  5
46
102
{ACAD_REACTORS
330
43
102
}
102
{ACAD_XDICTIONARY
360
16D
102
}
330
43
100
AcDbMaterial
  1
GLOBAL
  0
MLINESTYLE
  5
18
102
{ACAD_REACTORS
330
17
102
}
330
17
100
AcDbMlineStyle
  2
Standard
 70
     0
  3

 62
   256
 51
90.0
 52
90.0
 71
     2
 49
0.5
 62
   256
  6
BYLAYER
 49
-0.5
 62
   256
  6
BYLAYER
  0
ACAD_PROXY_OBJECT
  5
48
102
{ACAD_REACTORS
330
47
102
}
330
47
100
AcDbProxyObject
 90
      499
 91
      503
 93
       41
310
903313A31580
  0
ACAD_PROXY_OBJECT
  5
49
102
{ACAD_REACTORS
330
47
102
}
330
47
100
AcDbProxyObject
 90
      499
 91
      503
 93
      105
310
903313A324000000000000004000
  0
ACAD_PROXY_OBJECT
  5
4A
102
{ACAD_REACTORS
330
47
102
}
330
47
100
AcDbProxyObject
 90
      499
 91
      503
 93
      105
310
903313A344000000000000104000
  0
ACAD_PROXY_OBJECT
  5
4B
102
{ACAD_REACTORS
330
47
102
}
330
47
100
AcDbProxyObject
 90
      499
 91
      503
 93
      105
310
903313A354000000000000144000
  0
ACAD_PROXY_OBJECT
  5
4C
102
{ACAD_REACTORS
330
47
102
}
330
47
100
AcDbProxyObject
 90
      499
 91
      503
 93
      105
310
903313A384000000000000204000
  0
ACAD_PROXY_OBJECT
  5
4D
102
{ACAD_REACTORS
330
47
102
}
330
47
100
AcDbProxyObject
 90
      499
 91
      503
 93
      113
310
904313A31304000000000000244000
  0
ACAD_PROXY_OBJECT
  5
4E
102
{ACAD_REACTORS
330
47
102
}
330
47
100
AcDbProxyObject
 90
      499
 91
      503
 93
      113
310
904313A31364000000000000304000
  0
ACAD_PROXY_OBJECT
  5
4F
102
{ACAD_REACTORS
330
47
102
}
330
47
100
AcDbProxyObject
 90
      499
 91
      503
 93
      113
310
904313A32304000000000000344000
  0
ACAD_PROXY_OBJECT
  5
50
102
{ACAD_REACTORS
330
47
102
}
330
47
100
AcDbProxyObject
 90
      499
 91
      503
 93
      113
310
904313A333040000000000003E4000
  0
ACAD_PROXY_OBJECT
  5
51
102
{ACAD_REACTORS
330
47
102
}
330
47
100
AcDbProxyObject
 90
      499
 91
      503
 93
      113
310
904313A34304000000000000444000
  0
ACAD_PROXY_OBJECT
  5
52
102
{ACAD_REACTORS
330
47
102
}
330
47
100
AcDbProxyObject
 90
      499
 91
      503
 93
      113
310
904313A35304000000000000494000
  0
ACAD_PROXY_OBJECT
  5
53
102
{ACAD_REACTORS
330
47
102
}
330
47
100
AcDbProxyObject
 90
      499
 91
      503
 93
      121
310
905313A3130304000000000000594000
  0
ACAD_PROXY_OBJECT
  5
54
102
{ACAD_REACTORS
330
47
102
}
330
47
100
AcDbProxyObject
 90
      499
 91
      503
 93
      105
310
903323A310000000000000010100
  0
ACAD_PROXY_OBJECT
  5
55
102
{ACAD_REACTORS
330
47
102
}
330
47
100
AcDbProxyObject
 90
      499
 91
      503
 93
      105
310
903343A310000000000000410100
  0
ACAD_PROXY_OBJECT
  5
56
102
{ACAD_REACTORS
330
47
102
}
330
47
100
AcDbProxyObject
 90
      499
 91
      503
 93
      105
310
903383A310000000000000810100
  0
ACAD_PROXY_OBJECT
  5
57
102
{ACAD_REACTORS
330
47
102
}
330
47
100
AcDbProxyObject
 90
      499
 91
      503
 93
      113
310
90431303A310000000000000910100
  0
ACAD_PROXY_OBJECT
  5
58
102
{ACAD_REACTORS
330
47
102
}
330
47
100
AcDbProxyObject
 90
      499
 91
      503
 93
      121
310
9053130303A310000000000001650100
  0
ACAD_PROXY_OBJECT
  5
59
102
{ACAD_REACTORS
330
47
102
}
330
47
100
AcDbProxyObject
 90
      499
 91
      503
 93
      257
310
90E312F31323822203D2031272D3022000000000000200FC000000000000284000
  0
ACAD_PROXY_OBJECT
  5
5A
102
{ACAD_REACTORS
330
47
102
}
330
47
100
AcDbProxyObject
 90
      499
 91
      503
 93
      249
310
90D312F363422203D2031272D3022000000000000240FC000000000000284000
  0
ACAD_PROXY_OBJECT
  5
5B
102
{ACAD_REACTORS
330
47
102
}
330
47
100
AcDbProxyObject
 90
      499
 91
      503
 93
      249
310
90D312F333222203D2031272D3022000000000000280FC000000000000284000
  0
ACAD_PROXY_OBJECT
  5
5C
102
{ACAD_REACTORS
330
47
102
}
330
47
100
AcDbProxyObject
 90
      499
 91
      503
 93
      249
310
90D312F313622203D2031272D30220000000000002C0FC000000000000284000
  0
ACAD_PROXY_OBJECT
  5
5D
102
{ACAD_REACTORS
330
47
102
}
330
47
100
AcDbProxyObject
 90
      499
 91
      503
 93
      249
310
90D332F333222203D2031272D30220000000000002E0FC000000000000284000
  0
ACAD_PROXY_OBJECT
  5
5E
102
{ACAD_REACTORS
330
47
102
}
330
47
100
AcDbProxyObject
 90
      499
 91
      503
 93
      241
310
90C312F3822203D2031272D3022000000000000300FC000000000000284000
  0
ACAD_PROXY_OBJECT
  5
5F
102
{ACAD_REACTORS
330
47
102
}
330
47
100
AcDbProxyObject
 90
      499
 91
      503
 93
      249
310
90D332F313622203D2031272D3022000000000000320FC000000000000284000
  0
ACAD_PROXY_OBJECT
  5
60
102
{ACAD_REACTORS
330
47
102
}
330
47
100
AcDbProxyObject
 90
      499
 91
      503
 93
      241
310
90C312F3422203D2031272D3022000000000000340FC000000000000284000
  0
ACAD_PROXY_OBJECT
  5
61
102
{ACAD_REACTORS
330
47
102
}
330
47
100
AcDbProxyObject
 90
      499
 91
      503
 93
      241
310
90C332F3822203D2031272D3022000000000000360FC000000000000284000
  0
ACAD_PROXY_OBJECT
  5
62
102
{ACAD_REACTORS
330
47
102
}
330
47
100
AcDbProxyObject
 90
      499
 91
      503
 93
      241
310
90C312F3222203D2031272D3022000000000000380FC000000000000284000
  0
ACAD_PROXY_OBJECT
  5
63
102
{ACAD_REACTORS
330
47
102
}
330
47
100
AcDbProxyObject
 90
      499
 91
      503
 93
      241
310
90C332F3422203D2031272D30220000000000003A0FC000000000000284000
  0
ACAD_PROXY_OBJECT
  5
64
102
{ACAD_REACTORS
330
47
102
}
330
47
100
AcDbProxyObject
 90
      499
 91
      503
 93
      161
310
90A3122203D2031272D30224000000000000284000
  0
ACAD_PROXY_OBJECT
  5
65
102
{ACAD_REACTORS
330
47
102
}
330
47
100
AcDbProxyObject
 90
      499
 91
      503
 93
      257
310
90E312D312F3222203D2031272D30220000000000003E0FC000000000000284000
  0
ACAD_PROXY_OBJECT
  5
66
102
{ACAD_REACTORS
330
47
102
}
330
47
100
AcDbProxyObject
 90
      499
 91
      503
 93
      225
310
90A3322203D2031272D302200000000000002100000000000000284000
  0
ACAD_PROXY_OBJECT
  5
67
102
{ACAD_REACTORS
330
47
102
}
330
47
100
AcDbProxyObject
 90
      499
 91
      503
 93
      225
310
90A3622203D2031272D302200000000000006100000000000000284000
  0
ACAD_PROXY_OBJECT
  5
68
102
{ACAD_REACTORS
330
47
102
}
330
47
100
AcDbProxyObject
 90
      499
 91
      503
 93
      249
310
90D31272D3022203D2031272D30220000000000000A100000000000000284000
  0
ACAD_PROXY_OBJECT
  5
2F
102
{ACAD_REACTORS
330
2A
102
}
330
2A
100
AcDbProxyObject
 90
      499
 91
      501
 93
      436
310
42CC9915DA5C99599C985B595049028333333333333E33F0000000000000F90107901411070040501600405405064090741402480A0340
1001
ACAD
1000
AcDbSavedByObjectVersion
1070
     0
  0
ACAD_PROXY_OBJECT
  5
32
102
{ACAD_REACTORS
330
2A
102
}
330
2A
100
AcDbProxyObject
 90
      499
 91
      501
 93
      388
310
4150985CDA58D07406404333333333333E33F0000000000000F90107A41107004050150841D405064090741402480A0350
1001
ACAD
1000
AcDbSavedByObjectVersion
1070
     0
  0
ACAD_PROXY_OBJECT
  5
36
102
{ACAD_REACTORS
330
2A
102
}
330
2A
100
AcDbProxyObject
 90
      499
 91
      501
 93
      428
310
42109C9A59DA1D195B90C409028333333333333E33F0000000000000F9010790141107004050150841D405064090741402480A029950
1001
ACAD
1000
AcDbSavedByObjectVersion
1070
     0
  0
ACAD_PROXY_OBJECT
  5
3A
102
{ACAD_REACTORS
330
2A
102
}
330
2A
100
AcDbProxyObject
 90
      499
 91
      501
 93
      452
310
42D0DBDB1BDC90DA185B99D95104090240C333333333333E33F0000000000000F90108901411070040501508421405064090741402480A0350
1001
ACAD
1000
AcDbSavedByObjectVersion
1070
     0
  0
ACAD_PROXY_OBJECT
  5
34
102
{ACAD_REACTORS
330
2A
102
}
330
2A
100
AcDbProxyObject
 90
      499
 91
      501
 93
      500
310
4290DBDB98D95C1D1D585B10940D028333333333333E33F0000000000000F90107902409070040501000000000018199010841D405064090740C02480A0340
1001
ACAD
1000
AcDbSavedByObjectVersion
1070
     0
  0
ACAD_PROXY_OBJECT
  5
35
102
{ACAD_REACTORS
330
2A
102
}
330
2A
100
AcDbProxyObject
 90
      499
 91
      501
 93
      412
310
40D11A5B50B409028333333333333E33F0000000000000F9010790141107004050150841D405064090741402480A02677FFFFFD0
1001
ACAD
1000
AcDbSavedByObjectVersion
1070
     0
  0
ACAD_PROXY_OBJECT
  5
3D
102
{ACAD_REACTORS
330
2A
102
}
330
2A
100
AcDbProxyObject
 90
      499
 91
      501
 93
      452
310
43115919D950DBDB1BDC93D999916409028333333333333E33F0000000000000F9010790141107004050150841D405064090741402480A0350
1001
ACAD
1000
AcDbSavedByObjectVersion
1070
     0
  0
ACAD_PROXY_OBJECT
  5
39
102
{ACAD_REACTORS
330
2A
102
}
330
2A
100
AcDbProxyObject
 90
      499
 91
      501
 93
      444
310
42D19858D95C185D1D195C9B90F409028333333333333E33F0000000000000F9010790141107004050150841D405064090741402480A0350
1001
ACAD
1000
AcDbSavedByObjectVersion
1070
     0
  0
ACAD_PROXY_OBJECT
  5
2B
102
{ACAD_REACTORS
330
2A
102
}
330
2A
100
AcDbProxyObject
 90
      499
 91
      501
 93
      380
310
41119B185D240901404333333333333E33F0000000000000F9010740A907004050150841D405064090741402480A1B50
1001
ACAD
1000
AcDbSavedByObjectVersion
1070
     0
  0
ACAD_PROXY_OBJECT
  5
2C
102
{ACAD_REACTORS
330
2A
102
}
330
2A
100
AcDbProxyObject
 90
      499
 91
      501
 93
      468
310
43519B185D15DA5D1A115919D95CD0140901404333333333333E33F0000000000000F90107409019070040501600405405064090741402480A1B50
1001
ACAD
1000
AcDbSavedByObjectVersion
1070
     0
  0
ACAD_PROXY_OBJECT
  5
2D
102
{ACAD_REACTORS
330
2A
102
}
330
2A
100
AcDbProxyObject
 90
      499
 91
      501
 93
      404
310
41D1DBDD5C985D5910240902404333333333333E33F0000000000000F9010740A9070040501641D405064090741402480A1B50
1001
ACAD
1000
AcDbSavedByObjectVersion
1070
     0
  0
ACAD_PROXY_OBJECT
  5
2E
102
{ACAD_REACTORS
330
2A
102
}
330
2A
100
AcDbProxyObject
 90
      499
 91
      501
 93
      492
310
4411DBDD5C985D5915DA5D1A115919D95CD0340902404333333333333E33F0000000000000F90107409019070040501600405405064090741402480A1B50
1001
ACAD
1000
AcDbSavedByObjectVersion
1070
     0
  0
ACAD_PROXY_OBJECT
  5
31
102
{ACAD_REACTORS
330
2A
102
}
330
2A
100
AcDbProxyObject
 90
      499
 91
      501
 93
      476
310
41921A5919195B90640502408333333333333E33F0000000000000F901079024090700405020000000000001110200405405064090740C02480A0340
1001
ACAD
1000
AcDbSavedByObjectVersion
1070
     0
  0
ACAD_PROXY_OBJECT
  5
3B
102
{ACAD_REACTORS
330
2A
102
}
330
2A
100
AcDbProxyObject
 90
      499
 91
      501
 93
      428
310
42529A5D1D195C93D999914409028333333333333E33F0000000000000F9010790141107004050150A41D405064090741402480A0350
1001
ACAD
1000
AcDbSavedByObjectVersion
1070
     0
  0
ACAD_PROXY_OBJECT
  5
38
102
{ACAD_REACTORS
330
2A
102
}
330
2A
100
AcDbProxyObject
 90
      499
 91
      501
 93
      444
310
42D31A5B995C185D1D195C9B90E409028333333333333E33F0000000000000F9010790141107004050750841D405064090741402483A0350
1001
ACAD
1000
AcDbSavedByObjectVersion
1070
     0
  0
ACAD_PROXY_OBJECT
  5
3C
102
{ACAD_REACTORS
330
2A
102
}
330
2A
100
AcDbProxyObject
 90
      499
 91
      501
 93
      444
310
42D3DD995C9A185B99D3D999915409028333333333333E33F0000000000000F9010790141107004050150941D405064090741402480A0350
1001
ACAD
1000
AcDbSavedByObjectVersion
1070
     0
  0
ACAD_PROXY_OBJECT
  5
33
102
{ACAD_REACTORS
330
2A
102
}
330
2A
100
AcDbProxyObject
 90
      499
 91
      501
 93
      428
310
425499585B1A5CDD1A58D08409038333333333333E33F0000000000000F9010740A907004050150800405405064090740C02480A1B40
1001
ACAD
1000
AcDbSavedByObjectVersion
1070
     0
  0
ACAD_PROXY_OBJECT
  5
42
102
{ACAD_REACTORS
330
2A
102
}
330
2A
100
AcDbProxyObject
 90
      499
 91
      501
 93
      420
310
4194DA1859195911B40902404333333333333E33F0000000000000F9010740A41107004050150800405405064090840C02480A0B40
1001
ACAD
1000
AcDbSavedByObjectVersion
1070
     0
  0
ACAD_PROXY_OBJECT
  5
41
102
{ACAD_REACTORS
330
2A
102
}
330
2A
100
AcDbProxyObject
 90
      499
 91
      501
 93
      516
310
4454DA18591959081DDA5D1A08195919D95CD1A40902404333333333333E33F0000000000000F901074090142907004050250800405405064090740C02480A0B40
1001
ACAD
1000
AcDbSavedByObjectVersion
1070
     0
  0
ACAD_PROXY_OBJECT
  5
3E
102
{ACAD_REACTORS
330
2A
102
}
330
2A
100
AcDbProxyObject
 90
      499
 91
      501
 93
      532
310
4394DA1859195CC81BD98811DC985E5174090240C333333333333E33F0000000000000F901079024090741D01000000000000111010841D405064090740C02480A0340
1001
ACAD
1000
AcDbSavedByObjectVersion
1070
     0
  0
ACAD_PROXY_OBJECT
  5
3F
102
{ACAD_REACTORS
330
2A
102
}
330
2A
100
AcDbProxyObject
 90
      499
 91
      501
 93
      476
310
41D4DAD95D18DA1E51840502408333333333333E33F0000000000000F901079024090741D01000000000000111010B41D405064090741802480A0340
1001
ACAD
1000
AcDbSavedByObjectVersion
1070
     0
  0
ACAD_PROXY_OBJECT
  5
37
102
{ACAD_REACTORS
330
2A
102
}
330
2A
100
AcDbProxyObject
 90
      499
 91
      501
 93
      412
310
41D51A1A58DAD95B90D409028333333333333E33F0000000000000F9010790141107004050150C41D405064090741402480A0350
1001
ACAD
1000
AcDbSavedByObjectVersion
1070
     0
  0
ACAD_PROXY_OBJECT
  5
30
102
{ACAD_REACTORS
330
2A
102
}
330
2A
100
AcDbProxyObject
 90
      499
 91
      501
 93
      420
310
4255DA5C99599C985B595059028333333333333E33F0000000000000F90107901411070040501600405405064090740C02480A0340
1001
ACAD
1000
AcDbSavedByObjectVersion
1070
     0
  0
ACAD_PROXY_OBJECT
  5
40
102
{ACAD_REACTORS
330
2A
102
}
330
2A
100
AcDbProxyObject
 90
      499
 91
      501
 93
      404
310
41560B54985E51940902404000000000000E03F0000000000000F9010740501907004050150841D405064090740C02480A1B40
1001
ACAD
1000
AcDbSavedByObjectVersion
1070
     0
  0
XRECORD
  5
147
102
{ACAD_REACTORS
330
13E
102
}
330
13E
100
AcDbXrecord
 90
        0
  0
XRECORD
  5
15D
102
{ACAD_REACTORS
330
13E
102
}
330
13E
100
AcDbXrecord
1000
DSTYLE
1002
{
1070
   171
 70
     2
1070
   143
 40
25.4
1070
   274
 70
     2
1070
    41
 40
0.18
1070
   141
 40
0.09
1070
   271
 70
     4
1070
    43
 40
0.38
1070
   278
 70
    46
1070
    44
 40
0.18
1070
    42
 40
0.0625
1070
   147
 40
0.09
1070
    77
 70
     0
1070
   272
 70
     4
1070
    73
 70
     1
1070
   172
 70
     0
1070
    74
 70
     1
1070
   283
 70
     1
1070
   340
340
11
1070
   140
 40
0.18
1070
   284
 70
     0
1070
    78
 70
     0
1002
}
  0
XRECORD
  5
148
102
{ACAD_REACTORS
330
13E
102
}
330
13E
100
AcDbXrecord
  1
{66147148-6479-4F0F-9CBB-EF08DC5D9E29}
  0
XRECORD
  5
141
102
{ACAD_REACTORS
330
13E
102
}
330
13E
100
AcDbXrecord
  1

  0
XRECORD
  5
146
102
{ACAD_REACTORS
330
13E
102
}
330
13E
100
AcDbXrecord
 90
        4
  0
XRECORD
  5
143
102
{ACAD_REACTORS
330
13E
102
}
330
13E
100
AcDbXrecord
340
1A
  0
XRECORD
  5
145
102
{ACAD_REACTORS
330
13E
102
}
330
13E
100
AcDbXrecord
 90
    10781
  0
XRECORD
  5
144
102
{ACAD_REACTORS
330
13E
102
}
330
13E
100
AcDbXrecord
340
19
  0
XRECORD
  5
14A
102
{ACAD_REACTORS
330
13E
102
}
330
13E
100
AcDbXrecord
 40
0.0
  0
XRECORD
  5
14D
102
{ACAD_REACTORS
330
13E
102
}
330
13E
100
AcDbXrecord
340
0
  0
XRECORD
  5
153
102
{ACAD_REACTORS
330
13E
102
}
330
13E
100
AcDbXrecord
 10
0.0
 20
0.0
 30
0.0
  0
XRECORD
  5
14F
102
{ACAD_REACTORS
330
13E
102
}
330
13E
100
AcDbXrecord
 10
0.0
 20
0.0
 30
0.0
  0
XRECORD
  5
152
102
{ACAD_REACTORS
330
13E
102
}
330
13E
100
AcDbXrecord
 10
0.0
 20
0.0
 30
0.0
  0
XRECORD
  5
150
102
{ACAD_REACTORS
330
13E
102
}
330
13E
100
AcDbXrecord
 10
0.0
 20
0.0
 30
0.0
  0
XRECORD
  5
151
102
{ACAD_REACTORS
330
13E
102
}
330
13E
100
AcDbXrecord
 10
0.0
 20
0.0
 30
0.0
  0
XRECORD
  5
14E
102
{ACAD_REACTORS
330
13E
102
}
330
13E
100
AcDbXrecord
 10
0.0
 20
0.0
 30
0.0
  0
XRECORD
  5
14B
102
{ACAD_REACTORS
330
13E
102
}
330
13E
100
AcDbXrecord
340
0
  0
XRECORD
  5
14C
102
{ACAD_REACTORS
330
13E
102
}
330
13E
100
AcDbXrecord
 70
     0
  0
XRECORD
  5
142
102
{ACAD_REACTORS
330
13E
102
}
330
13E
100
AcDbXrecord
  1

  0
XRECORD
  5
13F
102
{ACAD_REACTORS
330
13E
102
}
330
13E
100
AcDbXrecord
 90
        1
  0
XRECORD
  5
140
102
{ACAD_REACTORS
330
13E
102
}
330
13E
100
AcDbXrecord
 90
       70
  0
XRECORD
  5
156
102
{ACAD_REACTORS
330
13E
102
}
330
13E
100
AcDbXrecord
340
0
  0
XRECORD
  5
15C
102
{ACAD_REACTORS
330
13E
102
}
330
13E
100
AcDbXrecord
 10
0.0
 20
0.0
 30
0.0
  0
XRECORD
  5
158
102
{ACAD_REACTORS
330
13E
102
}
330
13E
100
AcDbXrecord
 10
0.0
 20
0.0
 30
0.0
  0
XRECORD
  5
15B
102
{ACAD_REACTORS
330
13E
102
}
330
13E
100
AcDbXrecord
 10
0.0
 20
0.0
 30
0.0
  0
XRECORD
  5
159
102
{ACAD_REACTORS
330
13E
102
}
330
13E
100
AcDbXrecord
 10
0.0
 20
0.0
 30
0.0
  0
XRECORD
  5
15A
102
{ACAD_REACTORS
330
13E
102
}
330
13E
100
AcDbXrecord
 10
0.0
 20
0.0
 30
0.0
  0
XRECORD
  5
157
102
{ACAD_REACTORS
330
13E
102
}
330
13E
100
AcDbXrecord
 10
0.0
 20
0.0
 30
0.0
  0
XRECORD
  5
154
102
{ACAD_REACTORS
330
13E
102
}
330
13E
100
AcDbXrecord
340
0
  0
XRECORD
  5
155
102
{ACAD_REACTORS
330
13E
102
}
330
13E
100
AcDbXrecord
 70
     0
  0
XRECORD
  5
149
102
{ACAD_REACTORS
330
13E
102
}
330
13E
100
AcDbXrecord
  1
{FAEB1C32-E019-11D5-929B-00C0DF256EC4}
  0
DICTIONARYVAR
  5
167
102
{ACAD_REACTORS
330
15E
102
}
330
15E
100
DictionaryVariables
280
     0
  1
1:1
  0
DICTIONARYVAR
  5
163
102
{ACAD_REACTORS
330
15E
102
}
330
15E
100
DictionaryVariables
280
     0
  1
2
  0
DICTIONARYVAR
  5
164
102
{ACAD_REACTORS
330
15E
102
}
330
15E
100
DictionaryVariables
280
     0
  1
1
  0
DICTIONARYVAR
  5
168
102
{ACAD_REACTORS
330
15E
102
}
330
15E
100
DictionaryVariables
280
     0
  1
1
  0
DICTIONARY
  5
16B
330
45
100
AcDbDictionary
280
     1
  3
ACAD_XREC_ROUNDTRIP
360
16C
  0
DICTIONARY
  5
169
330
44
100
AcDbDictionary
280
     1
  3
ACAD_XREC_ROUNDTRIP
360
16A
  0
DICTIONARY
  5
16D
330
46
100
AcDbDictionary
280
     1
  3
ACAD_XREC_ROUNDTRIP
360
16E
  0
XRECORD
  5
16C
102
{ACAD_REACTORS
330
16B
102
}
330
16B
100
AcDbXrecord
102
MATERIAL
148
0.0
149
0.0
149
0.0
 93
        0
 94
      127
282
     0
 72
     1
 77
     1
171
     1
175
     1
179
     1
273
     0
  0
XRECORD
  5
16A
102
{ACAD_REACTORS
330
169
102
}
330
169
100
AcDbXrecord
102
MATERIAL
148
0.0
149
0.0
149
0.0
 93
        0
 94
      127
282
     0
 72
     1
 77
     1
171
     1
175
     1
179
     1
273
     0
  0
XRECORD
  5
16E
102
{ACAD_REACTORS
330
16D
102
}
330
16D
100
AcDbXrecord
102
MATERIAL
148
0.0
149
0.0
149
0.0
 93
        0
 94
      127
282
     0
 72
     1
 77
     1
171
     1
175
     1
179
     1
273
     0
  0
ENDSEC
  0
EOF
